# xmcd
#
# Track frame offsets: 
#        150
#        37970
#        72468
#        95627
#        128104
#        178926
#        225905
#        245474
#
# Disc length: 3966 seconds
#
# Revision: 0
# Processed by: cddbd v1.5.2PL0 Copyright (c) Steve Scherf et al.
# Submitted via: ExactAudioCopyFreeDBPlugin 1.0
#
DISCID=670f7c08
DTITLE=Tobias Koch - Scumann - Hiller - Piano Quintets
DYEAR=2015
DGENRE=Chamber Music
TTITLE0=Piano Quintet in E-flat major, Op. 44 - I. Allegro brillante
TTITLE1=Piano Quintet in E-flat major, Op. 44 - II. In modo d'una Marc
TTITLE1=ia
TTITLE2=Piano Quintet in E-flat major, Op. 44 - III. Scherzo - Molto V
TTITLE2=ivace
TTITLE3=Piano Quintet in E-flat major, Op. 44 - IV. Allegro ma non tro
TTITLE3=ppo
TTITLE4=Piano Quintet in G major, Op. 156 - I. Allegro con anima
TTITLE5=Piano Quintet in G major, Op. 156 - II. Adagio espressivo
TTITLE6=Piano Quintet in G major, Op. 156 - III. Intermezzo - Allegro 
TTITLE6=leggiero
TTITLE7=Piano Quintet in G major, Op. 156 - I. Finale. Allegro con mol
TTITLE7=to fuoco
EXTD=
EXTT0=
EXTT1=
EXTT2=
EXTT3=
EXTT4=
EXTT5=
EXTT6=
EXTT7=
PLAYORDER=
